<svg width="40" height="40" viewBox="0 0 20 20" fill="none" xmlns="http://www.w3.org/2000/svg">
<path d="M15.4198 9.99992C15.4198 12.9915 12.9946 15.4166 10.0031 15.4166C7.01155 15.4166 4.58643 12.9915 4.58643 9.99992C4.58643 7.00838 7.01155 4.58325 10.0031 4.58325C12.9946 4.58325 15.4198 7.00838 15.4198 9.99992Z" stroke-width="0.8" stroke-linecap="round" stroke-linejoin="round"/>
<path d="M15.9435 15.9511L15.8352 15.8427M15.8352 4.15939L15.9435 4.05106L15.8352 4.15939ZM4.04349 15.9511L4.15182 15.8427L4.04349 15.9511ZM9.99349 1.73439V1.66772V1.73439ZM9.99349 18.3344V18.2677V18.3344ZM1.72682 10.0011H1.66016H1.72682ZM18.3268 10.0011H18.2602H18.3268ZM4.15182 4.15939L4.04349 4.05106L4.15182 4.15939Z" stroke-width="1.5" stroke-linecap="round" stroke-linejoin="round"/>
</svg>
